<?xml version="1.0" encoding="UTF-8" standalone="no"?>
<!-- Created with Inkscape (http://www.inkscape.org/) -->

<svg
   width="176.63223mm"
   height="68.777199mm"
   viewBox="0 0 176.63223 68.777199"
   version="1.1"
   id="svg5"
   xml:space="preserve"
   xmlns:inkscape="http://www.inkscape.org/namespaces/inkscape"
   xmlns:sodipodi="http://sodipodi.sourceforge.net/DTD/sodipodi-0.dtd"
   xmlns="http://www.w3.org/2000/svg"
   xmlns:svg="http://www.w3.org/2000/svg"><sodipodi:namedview
     id="namedview7"
     pagecolor="#ffffff"
     bordercolor="#000000"
     borderopacity="0.25"
     inkscape:showpageshadow="2"
     inkscape:pageopacity="0.0"
     inkscape:pagecheckerboard="0"
     inkscape:deskcolor="#d1d1d1"
     inkscape:document-units="mm"
     showgrid="false"
     inkscape:zoom="1.4039843"
     inkscape:cx="366.81322"
     inkscape:cy="663.82509"
     inkscape:window-width="1920"
     inkscape:window-height="1043"
     inkscape:window-x="0"
     inkscape:window-y="0"
     inkscape:window-maximized="1"
     inkscape:current-layer="layer1" /><defs
     id="defs2"><rect
       x="390.11868"
       y="545.95685"
       width="313.08099"
       height="128.79488"
       id="rect1274" /></defs><g
     inkscape:label="Layer 1"
     inkscape:groupmode="layer"
     id="layer1"
     transform="translate(-11.82332,-121.32801)"><path
       style="opacity:1;fill:#000000;stroke-width:0.167128;stroke-dasharray:none"
       d="m 29.641342,190.10127 c 0.237777,0.12847 9.629135,-2.92489 16.365107,-2.92489 6.73597,0 16.078363,2.63258 16.311438,2.5383 0.233066,-0.0943 0.809827,-1.04227 0.608012,-1.30015 -0.201816,-0.25787 -8.808078,-2.52372 -9.423142,-3.24913 -0.615059,-0.7254 -3.409147,-21.61422 -2.700948,-23.19145 0.708198,-1.57723 3.815922,-1.84585 6.892135,-3.97666 3.07621,-2.13081 5.000979,-3.67899 4.175135,-5.08765 -0.82584,-1.40866 -3.487234,-0.37925 -5.821548,0.37881 -2.33431,0.75807 -5.294958,1.92598 -5.294958,1.92598 0,0 2.835665,-4.6766 4.275116,-8.57982 1.439452,-3.90321 2.273336,-7.73531 0.867247,-8.27583 -1.406085,-0.54053 -3.513049,2.59261 -4.969563,5.00815 -1.456514,2.41553 -3.671547,6.42401 -3.671547,6.42401 0,0 -0.278024,-5.08846 -0.652462,-8.00908 -0.374439,-2.92063 -1.4964,-8.79543 -3.108652,-8.75506 -1.612252,0.0404 -2.170415,3.92715 -2.167719,8.19358 0.0027,4.26643 0.475645,8.8684 0.475645,8.8684 0,0 -3.189575,-4.09901 -5.066197,-6.19254 -1.876623,-2.09354 -5.110203,-5.32504 -6.370798,-4.27795 -1.260596,1.04707 0.83053,4.84499 2.114059,6.97126 1.283528,2.12626 4.420456,7.13563 4.420456,7.13563 0,0 -3.013712,-1.23564 -5.210974,-2.21517 -2.197262,-0.97952 -5.835662,-2.39659 -6.246801,-0.80642 -0.411139,1.59016 7.732584,7.34033 10.022594,9.77508 2.032865,2.23232 3.51263,3.54257 3.73234,6.62702 0.219711,3.08445 0.290497,17.4792 -0.524015,18.39958 -0.814512,0.92037 -9.256094,2.99641 -9.395328,3.17409 -0.139235,0.17769 0.12759,1.29345 0.365368,1.42191 z"
       id="path233"
       sodipodi:nodetypes="zzzzzzzzzczzzczzzczzzczzczzzz"
       inkscape:export-filename="tree_icon_stag.svg"
       inkscape:export-xdpi="96"
       inkscape:export-ydpi="96" /><path
       d="m 61.886497,170.75117 c 0,0 -4.593051,-0.77959 -5.81432,-2.35365 -1.221273,-1.57407 -0.752989,-5.62607 -0.752989,-5.62607 0,0 3.249326,0.10361 5.004289,2.15056 1.754971,2.04698 1.56302,5.82916 1.56302,5.82916 z"
       id="path237"
       sodipodi:nodetypes="czczc" /><path
       d="m 73.260605,163.90873 c 0,0 -5.44638,2.12392 -7.89876,1.42713 -2.452379,-0.69681 -4.932622,-4.7267 -4.932622,-4.7267 0,0 3.523918,-1.91598 6.890032,-1.11309 3.36613,0.80287 5.94135,4.41267 5.94135,4.41267 z"
       id="path461"
       sodipodi:nodetypes="czczc" /><path
       d="m 72.641125,151.59213 c 0,0 -1.53485,3.74774 -3.13827,4.49028 -1.60344,0.74256 -5.060147,-0.40719 -5.060147,-0.40719 0,0 0.694097,-2.73454 2.810217,-3.84152 2.11613,-1.10698 5.3882,-0.24157 5.3882,-0.24157 z"
       id="path463"
       sodipodi:nodetypes="czczc" /><path
       d="m 70.315705,147.03762 c 0,0 -4.73089,2.63331 -7.152636,2.3048 -2.421747,-0.32851 -5.457411,-3.70646 -5.457411,-3.70646 0,0 2.96544,-2.20002 6.262438,-1.88976 3.296989,0.31027 6.347609,3.29142 6.347609,3.29142 z"
       id="path465"
       sodipodi:nodetypes="czczc" /><path
       d="m 70.413575,134.65529 c 0,0 -1.53592,4.51446 -3.60542,5.56588 -2.0695,1.05142 -6.934051,0.14091 -6.934051,0.14091 0,0 0.542214,-3.24255 3.254808,-4.77686 2.712613,-1.53432 7.284663,-0.92993 7.284663,-0.92993 z"
       id="path467"
       sodipodi:nodetypes="czczc" /><path
       d="m 62.786892,123.0442 c 0,0 1.47831,6.45581 0.143026,8.95556 -1.335259,2.49977 -6.710388,4.20899 -6.710388,4.20899 0,0 -1.612214,-4.31047 0.03468,-7.77943 1.646954,-3.46896 6.532635,-5.38512 6.532635,-5.38512 z"
       id="path469"
       sodipodi:nodetypes="czczc" /><path
       d="m 47.023849,125.72533 c 0,0 4.616449,2.32441 5.453363,4.54191 0.836935,2.21751 -0.814318,6.81535 -0.814318,6.81535 0,0 -3.393874,-1.12023 -4.657974,-4.05519 -1.264082,-2.93499 0.01892,-7.30204 0.01892,-7.30204 z"
       id="path471"
       sodipodi:nodetypes="czczc" /><path
       d="m 42.323056,121.32801 c 0,0 1.470498,6.75216 0.34244,9.42661 -1.128044,2.67446 -5.869711,4.64335 -5.869711,4.64335 0,0 -1.538108,-4.48869 -0.156044,-8.1936 1.382094,-3.70492 5.683291,-5.87635 5.683291,-5.87635 z"
       id="path473"
       sodipodi:nodetypes="czczc" /><path
       d="m 24.110163,124.25384 c 0,0 5.832208,0.36882 7.568715,2.17825 1.736532,1.80942 1.703451,6.94488 1.703451,6.94488 0,0 -4.065079,0.29992 -6.531241,-2.03103 -2.466155,-2.33099 -2.740928,-7.09208 -2.740928,-7.09208 z"
       id="path475"
       sodipodi:nodetypes="czczc" /><path
       d="m 14.097763,135.02817 c 0,0 5.650775,-2.42329 8.396932,-1.57405 2.746176,0.84922 5.929339,5.61101 5.929339,5.61101 0,0 -3.59004,2.20382 -7.340658,1.2184 -3.750636,-0.98544 -6.985601,-5.25534 -6.985601,-5.25534 z"
       id="path477"
       sodipodi:nodetypes="czczc" /><path
       d="m 16.835506,142.16954 c 0,0 4.829527,0.34977 6.239686,1.6891 1.410182,1.33933 1.298739,5.07108 1.298739,5.07108 0,0 -3.375318,0.16101 -5.381912,-1.56757 -2.006588,-1.7286 -2.156515,-5.19258 -2.156515,-5.19258 z"
       id="path479"
       sodipodi:nodetypes="czczc" /><path
       d="m 11.823319,156.4623 c 0,0 2.519871,-5.24018 4.865709,-6.16356 2.345849,-0.92341 7.15459,1.03139 7.15459,1.03139 0,0 -1.233469,3.86114 -4.340846,5.26198 -3.107408,1.40082 -7.67943,-0.1298 -7.67943,-0.1298 z"
       id="path481"
       sodipodi:nodetypes="czczc" /><path
       d="m 17.741786,169.29115 c 0,0 -1.548352,-6.38848 0.0674,-8.81559 1.615741,-2.42712 7.902124,-3.97774 7.902124,-3.97774 0,0 1.7598,4.28077 -0.243112,7.65395 -2.002956,3.37319 -7.726374,5.13937 -7.726374,5.13937 z"
       id="path483"
       sodipodi:nodetypes="czczc" /><path
       d="m 31.604462,171.58358 c 0,0 -3.369001,-3.72726 -3.304027,-5.86393 0.06497,-2.13669 3.312644,-5.21962 3.312644,-5.21962 0,0 2.698237,2.26139 2.756004,5.15159 0.05774,2.89022 -2.764606,5.93195 -2.764606,5.93195 z"
       id="path485"
       sodipodi:nodetypes="czczc" /><text
       xml:space="preserve"
       transform="matrix(0.52466303,0,0,0.52466303,-107.39085,-149.97368)"
       id="text1272"
       style="font-style:normal;font-variant:normal;font-weight:normal;font-stretch:normal;font-size:96px;font-family:Vibes;-inkscape-font-specification:'Vibes, @wght=700';font-variant-ligatures:normal;font-variant-caps:normal;font-variant-numeric:normal;font-variant-east-asian:normal;font-variation-settings:'wght' 700;white-space:pre;shape-inside:url(#rect1274);opacity:1;fill:#000000;stroke-width:1.37953;stroke-dasharray:none"><tspan
         x="390.11914"
         y="617.3856"
         id="tspan1756">STAG</tspan></text></g></svg>
